<svg xmlns="http://www.w3.org/2000/svg"><defs>
<symbol id="i-phone" viewBox="0 0 24 24"><path d="M5 4h4l2 5-2.500 1.500a11 11 0 005 5L15 13l5 2v4a2 2 0 01-2 2A16 16 0 013 6a2 2 0 012-2z" fill="none" stroke="currentColor" stroke-width="1.800" stroke-linejoin="round"/></symbol>
<symbol id="i-calendar" viewBox="0 0 24 24"><rect x="3" y="5" width="18" height="16" rx="2" fill="none" stroke="currentColor" stroke-width="1.800"/><path d="M3 10h18M8 3v4M16 3v4" stroke="currentColor" stroke-width="1.800" stroke-linecap="round"/></symbol>
<symbol id="i-shield" viewBox="0 0 24 24"><path d="M12 3l8 3v6c0 5-3.500 8-8 9-4.500-1-8-4-8-9V6l8-3z" fill="none" stroke="currentColor" stroke-width="1.800" stroke-linejoin="round"/><path d="M8.500 12l2.500 2.500 4.500-5" fill="none" stroke="currentColor" stroke-width="1.800" stroke-linecap="round" stroke-linejoin="round"/></symbol>
<symbol id="i-bell" viewBox="0 0 24 24"><path d="M6 17V11a6 6 0 1112 0v6l2 2H4l2-2zM10 21h4" fill="none" stroke="currentColor" stroke-width="1.800" stroke-linecap="round" stroke-linejoin="round"/></symbol>
<symbol id="i-chat" viewBox="0 0 24 24"><path d="M4 5h16v11H9l-5 4V5z" fill="none" stroke="currentColor" stroke-width="1.800" stroke-linejoin="round"/></symbol>
<symbol id="i-chart" viewBox="0 0 24 24"><path d="M4 20V4M4 20h16M8 16v-5M12 16V8M16 16v-8" fill="none" stroke="currentColor" stroke-width="1.800" stroke-linecap="round"/></symbol>
<symbol id="i-plug" viewBox="0 0 24 24"><path d="M9 3v5M15 3v5M6 8h12v3a6 6 0 01-12 0V8zM12 17v4" fill="none" stroke="currentColor" stroke-width="1.800" stroke-linecap="round" stroke-linejoin="round"/></symbol>
<symbol id="i-alert" viewBox="0 0 24 24"><path d="M12 3l10 18H2L12 3zM12 10v5M12 18v.01" fill="none" stroke="currentColor" stroke-width="1.800" stroke-linecap="round" stroke-linejoin="round"/></symbol>
<symbol id="i-users" viewBox="0 0 24 24"><circle cx="9" cy="8" r="3.500" fill="none" stroke="currentColor" stroke-width="1.800"/><path d="M2 20c0-4 3-6 7-6s7 2 7 6M17 5a3.500 3.500 0 010 7M19 14c2 .8 3 2.500 3 6" fill="none" stroke="currentColor" stroke-width="1.800" stroke-linecap="round"/></symbol>
<symbol id="i-clock" viewBox="0 0 24 24"><circle cx="12" cy="12" r="9" fill="none" stroke="currentColor" stroke-width="1.800"/><path d="M12 7v5l3 2" fill="none" stroke="currentColor" stroke-width="1.800" stroke-linecap="round"/></symbol>
</defs></svg>
